<mxfile host="app.diagrams.net" modified="2023-07-23T13:54:05.521Z" agent="Mozilla/5.0 (Macintosh; Intel Mac OS X 10_15_7) AppleWebKit/537.36 (KHTML, like Gecko) Chrome/115.0.0.0 Safari/537.36" etag="0aw2C5ytmqFKRen-Npeo" version="21.3.8" type="device" pages="8">
  <diagram name="Page-1" id="sqKK8ubLGv3FGzlL4iGd">
    <mxGraphModel dx="1015" dy="629" grid="1" gridSize="10" guides="1" tooltips="1" connect="1" arrows="1" fold="1" page="1" pageScale="1" pageWidth="827" pageHeight="1169" math="0" shadow="0">
      <root>
        <mxCell id="0" />
        <mxCell id="1" parent="0" />
        <mxCell id="OPqLMrB8b6R3xN5pBg3c-8" value="Serveur" style="shape=umlLifeline;perimeter=lifelinePerimeter;whiteSpace=wrap;container=1;dropTarget=0;collapsible=0;recursiveResize=0;outlineConnect=0;portConstraint=eastwest;newEdgeStyle={&quot;edgeStyle&quot;:&quot;elbowEdgeStyle&quot;,&quot;elbow&quot;:&quot;vertical&quot;,&quot;curved&quot;:0,&quot;rounded&quot;:0};size=65;rounded=1;" parent="1" vertex="1">
          <mxGeometry x="20" y="20" width="150" height="480" as="geometry" />
        </mxCell>
        <mxCell id="OPqLMrB8b6R3xN5pBg3c-9" value="Client" style="shape=umlLifeline;perimeter=lifelinePerimeter;whiteSpace=wrap;container=1;dropTarget=0;collapsible=0;recursiveResize=0;outlineConnect=0;portConstraint=eastwest;newEdgeStyle={&quot;edgeStyle&quot;:&quot;elbowEdgeStyle&quot;,&quot;elbow&quot;:&quot;vertical&quot;,&quot;curved&quot;:0,&quot;rounded&quot;:0};size=65;rounded=1;" parent="1" vertex="1">
          <mxGeometry x="401" y="20" width="150" height="480" as="geometry" />
        </mxCell>
        <mxCell id="OPqLMrB8b6R3xN5pBg3c-10" value="Envoie le Défi" style="verticalAlign=bottom;endArrow=block;edgeStyle=elbowEdgeStyle;elbow=vertical;curved=0;rounded=1;" parent="1" source="OPqLMrB8b6R3xN5pBg3c-8" target="OPqLMrB8b6R3xN5pBg3c-9" edge="1">
          <mxGeometry relative="1" as="geometry">
            <Array as="points">
              <mxPoint x="296" y="127" />
            </Array>
          </mxGeometry>
        </mxCell>
        <mxCell id="OPqLMrB8b6R3xN5pBg3c-11" value="Génère la Signature avec la Clé Privée" style="curved=1;rounded=1;" parent="1" source="OPqLMrB8b6R3xN5pBg3c-9" target="OPqLMrB8b6R3xN5pBg3c-9" edge="1">
          <mxGeometry relative="1" as="geometry">
            <Array as="points">
              <mxPoint x="526" y="179" />
              <mxPoint x="526" y="209" />
            </Array>
          </mxGeometry>
        </mxCell>
        <mxCell id="OPqLMrB8b6R3xN5pBg3c-12" value="Envoie la Réponse au Défi" style="verticalAlign=bottom;endArrow=block;edgeStyle=elbowEdgeStyle;elbow=vertical;curved=0;rounded=1;" parent="1" source="OPqLMrB8b6R3xN5pBg3c-9" target="OPqLMrB8b6R3xN5pBg3c-8" edge="1">
          <mxGeometry relative="1" as="geometry">
            <Array as="points">
              <mxPoint x="296" y="261" />
            </Array>
          </mxGeometry>
        </mxCell>
        <mxCell id="OPqLMrB8b6R3xN5pBg3c-13" value="Vérifie la Signature avec la Clé Publique" style="curved=1;rounded=1;" parent="1" source="OPqLMrB8b6R3xN5pBg3c-8" target="OPqLMrB8b6R3xN5pBg3c-8" edge="1">
          <mxGeometry relative="1" as="geometry">
            <Array as="points">
              <mxPoint x="145" y="313" />
              <mxPoint x="145" y="343" />
            </Array>
          </mxGeometry>
        </mxCell>
        <mxCell id="OPqLMrB8b6R3xN5pBg3c-14" value="Résultat de l&#39;Authentification (Succès/Échec)" style="verticalAlign=bottom;endArrow=block;edgeStyle=elbowEdgeStyle;elbow=vertical;curved=0;rounded=1;" parent="1" source="OPqLMrB8b6R3xN5pBg3c-8" target="OPqLMrB8b6R3xN5pBg3c-9" edge="1">
          <mxGeometry relative="1" as="geometry">
            <Array as="points">
              <mxPoint x="296" y="395" />
            </Array>
          </mxGeometry>
        </mxCell>
      </root>
    </mxGraphModel>
  </diagram>
  <diagram id="TBrXt9BlKzdv-1mKYSfI" name="Page-2">
    <mxGraphModel dx="1434" dy="792" grid="1" gridSize="10" guides="1" tooltips="1" connect="1" arrows="1" fold="1" page="1" pageScale="1" pageWidth="827" pageHeight="1169" math="0" shadow="0">
      <root>
        <mxCell id="0" />
        <mxCell id="1" parent="0" />
        <mxCell id="LvCeoT_2fvZnhrDK-7RY-1" value="Serveur de Signalisation" style="rounded=1;absoluteArcSize=1;arcSize=14;whiteSpace=wrap;strokeWidth=2;" vertex="1" parent="1">
          <mxGeometry x="180" y="20" width="187" height="34" as="geometry" />
        </mxCell>
        <mxCell id="LvCeoT_2fvZnhrDK-7RY-2" value="Registre" style="rounded=1;absoluteArcSize=1;arcSize=14;whiteSpace=wrap;strokeWidth=2;" vertex="1" parent="1">
          <mxGeometry x="236" y="104" width="73" height="34" as="geometry" />
        </mxCell>
        <mxCell id="LvCeoT_2fvZnhrDK-7RY-3" value="Clé Publique du Client 1" style="whiteSpace=wrap;strokeWidth=2;rounded=1;" vertex="1" parent="1">
          <mxGeometry x="60" y="188" width="188" height="34" as="geometry" />
        </mxCell>
        <mxCell id="LvCeoT_2fvZnhrDK-7RY-4" value="Clé Publique du Client 2" style="whiteSpace=wrap;strokeWidth=2;rounded=1;" vertex="1" parent="1">
          <mxGeometry x="337" y="188" width="188" height="34" as="geometry" />
        </mxCell>
        <mxCell id="LvCeoT_2fvZnhrDK-7RY-5" value="Connection 1" style="rounded=1;absoluteArcSize=1;arcSize=14;whiteSpace=wrap;strokeWidth=2;" vertex="1" parent="1">
          <mxGeometry x="20" y="272" width="109" height="34" as="geometry" />
        </mxCell>
        <mxCell id="LvCeoT_2fvZnhrDK-7RY-6" value="Connection 2" style="rounded=1;absoluteArcSize=1;arcSize=14;whiteSpace=wrap;strokeWidth=2;" vertex="1" parent="1">
          <mxGeometry x="179" y="272" width="109" height="34" as="geometry" />
        </mxCell>
        <mxCell id="LvCeoT_2fvZnhrDK-7RY-7" value="Connection 3" style="rounded=1;absoluteArcSize=1;arcSize=14;whiteSpace=wrap;strokeWidth=2;" vertex="1" parent="1">
          <mxGeometry x="377" y="272" width="109" height="34" as="geometry" />
        </mxCell>
        <mxCell id="LvCeoT_2fvZnhrDK-7RY-8" value="" style="curved=1;startArrow=none;endArrow=block;exitX=0.4965741978609626;exitY=1;entryX=0.5049229452054794;entryY=0;rounded=1;" edge="1" parent="1" source="LvCeoT_2fvZnhrDK-7RY-1" target="LvCeoT_2fvZnhrDK-7RY-2">
          <mxGeometry relative="1" as="geometry">
            <Array as="points" />
          </mxGeometry>
        </mxCell>
        <mxCell id="LvCeoT_2fvZnhrDK-7RY-9" value="" style="curved=1;startArrow=none;endArrow=block;exitX=0.004762414383561644;exitY=0.8786166748966112;entryX=0.4985871010638298;entryY=0;rounded=1;" edge="1" parent="1" source="LvCeoT_2fvZnhrDK-7RY-2" target="LvCeoT_2fvZnhrDK-7RY-3">
          <mxGeometry relative="1" as="geometry">
            <Array as="points">
              <mxPoint x="154" y="163" />
            </Array>
          </mxGeometry>
        </mxCell>
        <mxCell id="LvCeoT_2fvZnhrDK-7RY-10" value="" style="curved=1;startArrow=none;endArrow=block;exitX=1.0050834760273972;exitY=0.7841395343450895;entryX=0.503158244680851;entryY=0;rounded=1;" edge="1" parent="1" source="LvCeoT_2fvZnhrDK-7RY-2" target="LvCeoT_2fvZnhrDK-7RY-4">
          <mxGeometry relative="1" as="geometry">
            <Array as="points">
              <mxPoint x="432" y="163" />
            </Array>
          </mxGeometry>
        </mxCell>
        <mxCell id="LvCeoT_2fvZnhrDK-7RY-11" value="" style="curved=1;startArrow=none;endArrow=block;exitX=0.327710430914387;exitY=1;entryX=0.49878153669724773;entryY=0;rounded=1;" edge="1" parent="1" source="LvCeoT_2fvZnhrDK-7RY-3" target="LvCeoT_2fvZnhrDK-7RY-5">
          <mxGeometry relative="1" as="geometry">
            <Array as="points">
              <mxPoint x="74" y="247" />
            </Array>
          </mxGeometry>
        </mxCell>
        <mxCell id="LvCeoT_2fvZnhrDK-7RY-12" value="" style="curved=1;startArrow=none;endArrow=block;exitX=0.6694637712132726;exitY=1;entryX=0.49634461009174313;entryY=0;rounded=1;" edge="1" parent="1" source="LvCeoT_2fvZnhrDK-7RY-3" target="LvCeoT_2fvZnhrDK-7RY-6">
          <mxGeometry relative="1" as="geometry">
            <Array as="points">
              <mxPoint x="233" y="247" />
            </Array>
          </mxGeometry>
        </mxCell>
        <mxCell id="LvCeoT_2fvZnhrDK-7RY-13" value="" style="curved=1;startArrow=none;endArrow=block;exitX=0.503158244680851;exitY=1;entryX=0.5008600917431193;entryY=0;rounded=1;" edge="1" parent="1" source="LvCeoT_2fvZnhrDK-7RY-4" target="LvCeoT_2fvZnhrDK-7RY-7">
          <mxGeometry relative="1" as="geometry">
            <Array as="points" />
          </mxGeometry>
        </mxCell>
      </root>
    </mxGraphModel>
  </diagram>
  <diagram id="F4Glk2_1_Jlnj0OKsynl" name="Page-3">
    <mxGraphModel dx="1687" dy="932" grid="1" gridSize="10" guides="1" tooltips="1" connect="1" arrows="1" fold="1" page="1" pageScale="1" pageWidth="827" pageHeight="1169" math="0" shadow="0">
      <root>
        <mxCell id="0" />
        <mxCell id="1" parent="0" />
        <mxCell id="5pPUjHoN9vfY5-dkw51r-16" value="Message Entrant" style="whiteSpace=wrap;strokeWidth=2;rounded=1;" vertex="1" parent="1">
          <mxGeometry x="286" y="20" width="133" height="34" as="geometry" />
        </mxCell>
        <mxCell id="5pPUjHoN9vfY5-dkw51r-17" value="Valide ?" style="rhombus;strokeWidth=2;whiteSpace=wrap;rounded=1;" vertex="1" parent="1">
          <mxGeometry x="294.5" y="104" width="116" height="116" as="geometry" />
        </mxCell>
        <mxCell id="5pPUjHoN9vfY5-dkw51r-18" value="Clé Publique ?" style="rhombus;strokeWidth=2;whiteSpace=wrap;rounded=1;" vertex="1" parent="1">
          <mxGeometry x="190" y="290.5" width="123" height="123" as="geometry" />
        </mxCell>
        <mxCell id="5pPUjHoN9vfY5-dkw51r-19" value="Alerte et Quitter" style="whiteSpace=wrap;strokeWidth=2;rounded=1;" vertex="1" parent="1">
          <mxGeometry x="381" y="335" width="137" height="34" as="geometry" />
        </mxCell>
        <mxCell id="5pPUjHoN9vfY5-dkw51r-20" value="ID Client ?" style="rhombus;strokeWidth=2;whiteSpace=wrap;rounded=1;" vertex="1" parent="1">
          <mxGeometry x="110" y="495" width="124" height="124" as="geometry" />
        </mxCell>
        <mxCell id="5pPUjHoN9vfY5-dkw51r-21" value="Diffuser à Tous" style="whiteSpace=wrap;strokeWidth=2;rounded=1;" vertex="1" parent="1">
          <mxGeometry x="281" y="540" width="121" height="34" as="geometry" />
        </mxCell>
        <mxCell id="5pPUjHoN9vfY5-dkw51r-22" value="Envoi Direct" style="whiteSpace=wrap;strokeWidth=2;rounded=1;" vertex="1" parent="1">
          <mxGeometry x="20" y="687" width="102" height="34" as="geometry" />
        </mxCell>
        <mxCell id="5pPUjHoN9vfY5-dkw51r-23" value="Diffuser par Clé Publique" style="whiteSpace=wrap;strokeWidth=2;rounded=1;" vertex="1" parent="1">
          <mxGeometry x="172" y="687" width="195" height="34" as="geometry" />
        </mxCell>
        <mxCell id="5pPUjHoN9vfY5-dkw51r-24" value="" style="curved=1;startArrow=none;endArrow=block;exitX=0.5030251409774437;exitY=1;entryX=0.49906099759615385;entryY=0;rounded=1;" edge="1" parent="1" source="5pPUjHoN9vfY5-dkw51r-16" target="5pPUjHoN9vfY5-dkw51r-17">
          <mxGeometry relative="1" as="geometry">
            <Array as="points" />
          </mxGeometry>
        </mxCell>
        <mxCell id="5pPUjHoN9vfY5-dkw51r-25" value="Oui" style="curved=1;startArrow=none;endArrow=block;exitX=-0.0023287259615384615;exitY=0.9500473586324532;entryX=0.5;entryY=0;rounded=1;entryDx=0;entryDy=0;" edge="1" parent="1" source="5pPUjHoN9vfY5-dkw51r-17" target="5pPUjHoN9vfY5-dkw51r-18">
          <mxGeometry relative="1" as="geometry">
            <Array as="points">
              <mxPoint x="256" y="243" />
            </Array>
          </mxGeometry>
        </mxCell>
        <mxCell id="5pPUjHoN9vfY5-dkw51r-26" value="Non" style="curved=1;startArrow=none;endArrow=block;exitX=1.0004507211538463;exitY=0.9500473586324532;entryX=0.501682253649635;entryY=0.00700827205882353;rounded=1;" edge="1" parent="1" source="5pPUjHoN9vfY5-dkw51r-17" target="5pPUjHoN9vfY5-dkw51r-19">
          <mxGeometry relative="1" as="geometry">
            <Array as="points">
              <mxPoint x="450" y="243" />
            </Array>
          </mxGeometry>
        </mxCell>
        <mxCell id="5pPUjHoN9vfY5-dkw51r-27" value="Oui" style="curved=1;startArrow=none;endArrow=block;exitX=0.10980158134881682;exitY=1.00125;entryX=0.4958536116803279;entryY=0.0015368852459016393;rounded=1;" edge="1" parent="1" source="5pPUjHoN9vfY5-dkw51r-18" target="5pPUjHoN9vfY5-dkw51r-20">
          <mxGeometry relative="1" as="geometry">
            <Array as="points">
              <mxPoint x="170" y="462" />
            </Array>
          </mxGeometry>
        </mxCell>
        <mxCell id="5pPUjHoN9vfY5-dkw51r-28" value="Non" style="curved=1;startArrow=none;endArrow=block;exitX=0.8911880019845163;exitY=1.00125;entryX=0.501275180785124;entryY=-0.0008042279411764705;rounded=1;" edge="1" parent="1" source="5pPUjHoN9vfY5-dkw51r-18" target="5pPUjHoN9vfY5-dkw51r-21">
          <mxGeometry relative="1" as="geometry">
            <Array as="points">
              <mxPoint x="342" y="462" />
            </Array>
          </mxGeometry>
        </mxCell>
        <mxCell id="5pPUjHoN9vfY5-dkw51r-29" value="Oui" style="curved=1;startArrow=none;endArrow=block;exitX=-0.002385373975409836;exitY=0.9778007515128769;entryX=0.5017616421568627;entryY=-0.007123161764705882;rounded=1;" edge="1" parent="1" source="5pPUjHoN9vfY5-dkw51r-20" target="5pPUjHoN9vfY5-dkw51r-22">
          <mxGeometry relative="1" as="geometry">
            <Array as="points">
              <mxPoint x="71" y="652" />
            </Array>
          </mxGeometry>
        </mxCell>
        <mxCell id="5pPUjHoN9vfY5-dkw51r-30" value="Non" style="curved=1;startArrow=none;endArrow=block;exitX=0.9940925973360656;exitY=0.9778007515128769;entryX=0.501582532051282;entryY=-0.007123161764705882;rounded=1;" edge="1" parent="1" source="5pPUjHoN9vfY5-dkw51r-20" target="5pPUjHoN9vfY5-dkw51r-23">
          <mxGeometry relative="1" as="geometry">
            <Array as="points">
              <mxPoint x="270" y="652" />
            </Array>
          </mxGeometry>
        </mxCell>
      </root>
    </mxGraphModel>
  </diagram>
  <diagram id="UQKvGBz_HemIOa6W88BC" name="Page-4">
    <mxGraphModel dx="1015" dy="629" grid="1" gridSize="10" guides="1" tooltips="1" connect="1" arrows="1" fold="1" page="1" pageScale="1" pageWidth="827" pageHeight="1169" math="0" shadow="0">
      <root>
        <mxCell id="0" />
        <mxCell id="1" parent="0" />
        <mxCell id="TlXHAe3m7OYoo4JRVyA1-1" value="Utilisateur A" style="shape=umlLifeline;perimeter=lifelinePerimeter;whiteSpace=wrap;container=1;dropTarget=0;collapsible=0;recursiveResize=0;outlineConnect=0;portConstraint=eastwest;newEdgeStyle={&quot;edgeStyle&quot;:&quot;elbowEdgeStyle&quot;,&quot;elbow&quot;:&quot;vertical&quot;,&quot;curved&quot;:0,&quot;rounded&quot;:0};size=65;rounded=1;" parent="1" vertex="1">
          <mxGeometry x="20" y="10" width="150" height="890" as="geometry" />
        </mxCell>
        <mxCell id="TlXHAe3m7OYoo4JRVyA1-2" value="Serveur de Signalisation" style="shape=umlLifeline;perimeter=lifelinePerimeter;whiteSpace=wrap;container=1;dropTarget=0;collapsible=0;recursiveResize=0;outlineConnect=0;portConstraint=eastwest;newEdgeStyle={&quot;edgeStyle&quot;:&quot;elbowEdgeStyle&quot;,&quot;elbow&quot;:&quot;vertical&quot;,&quot;curved&quot;:0,&quot;rounded&quot;:0};size=65;rounded=1;" parent="1" vertex="1">
          <mxGeometry x="318" y="10" width="189" height="890" as="geometry" />
        </mxCell>
        <mxCell id="TlXHAe3m7OYoo4JRVyA1-3" value="Utilisateur B" style="shape=umlLifeline;perimeter=lifelinePerimeter;whiteSpace=wrap;container=1;dropTarget=0;collapsible=0;recursiveResize=0;outlineConnect=0;portConstraint=eastwest;newEdgeStyle={&quot;edgeStyle&quot;:&quot;elbowEdgeStyle&quot;,&quot;elbow&quot;:&quot;vertical&quot;,&quot;curved&quot;:0,&quot;rounded&quot;:0};size=65;rounded=1;" parent="1" vertex="1">
          <mxGeometry x="650" y="10" width="150" height="890" as="geometry" />
        </mxCell>
        <mxCell id="TlXHAe3m7OYoo4JRVyA1-4" value="loop" style="shape=umlFrame;dashed=1;pointerEvents=0;dropTarget=0;strokeColor=#B3B3B3;height=20;width=40;rounded=1;" parent="1" vertex="1">
          <mxGeometry x="20" y="342" width="780" height="254" as="geometry" />
        </mxCell>
        <mxCell id="TlXHAe3m7OYoo4JRVyA1-5" value="[jusqu&#39;à Établissement de la Connexion]" style="text;strokeColor=none;fillColor=none;align=center;verticalAlign=middle;whiteSpace=wrap;rounded=1;" parent="TlXHAe3m7OYoo4JRVyA1-4" vertex="1">
          <mxGeometry x="36.61971830985915" width="743.3802816901409" height="20" as="geometry" />
        </mxCell>
        <mxCell id="TlXHAe3m7OYoo4JRVyA1-6" value="loop" style="shape=umlFrame;dashed=1;pointerEvents=0;dropTarget=0;strokeColor=#B3B3B3;height=20;width=40;rounded=1;" parent="1" vertex="1">
          <mxGeometry x="20" y="655" width="780" height="150" as="geometry" />
        </mxCell>
        <mxCell id="TlXHAe3m7OYoo4JRVyA1-7" value="[tant que le Document est modifié]" style="text;strokeColor=none;fillColor=none;align=center;verticalAlign=middle;whiteSpace=wrap;rounded=1;" parent="TlXHAe3m7OYoo4JRVyA1-6" vertex="1">
          <mxGeometry x="36.61971830985915" width="743.3802816901409" height="20" as="geometry" />
        </mxCell>
        <mxCell id="TlXHAe3m7OYoo4JRVyA1-8" value="Demande de diffusion du document sur le réseau" style="verticalAlign=bottom;endArrow=block;edgeStyle=elbowEdgeStyle;elbow=vertical;curved=0;rounded=1;" parent="1" source="TlXHAe3m7OYoo4JRVyA1-1" target="TlXHAe3m7OYoo4JRVyA1-2" edge="1">
          <mxGeometry relative="1" as="geometry">
            <Array as="points">
              <mxPoint x="209" y="117" />
            </Array>
          </mxGeometry>
        </mxCell>
        <mxCell id="TlXHAe3m7OYoo4JRVyA1-9" value="Transfert de la demande à l&#39;Utilisateur B" style="verticalAlign=bottom;endArrow=block;edgeStyle=elbowEdgeStyle;elbow=vertical;curved=0;rounded=1;" parent="1" source="TlXHAe3m7OYoo4JRVyA1-2" target="TlXHAe3m7OYoo4JRVyA1-3" edge="1">
          <mxGeometry relative="1" as="geometry">
            <Array as="points">
              <mxPoint x="625" y="169" />
            </Array>
          </mxGeometry>
        </mxCell>
        <mxCell id="TlXHAe3m7OYoo4JRVyA1-10" value="Réponse avec l&#39;en-tête du document" style="verticalAlign=bottom;endArrow=block;edgeStyle=elbowEdgeStyle;elbow=vertical;curved=0;rounded=1;" parent="1" source="TlXHAe3m7OYoo4JRVyA1-3" target="TlXHAe3m7OYoo4JRVyA1-2" edge="1">
          <mxGeometry relative="1" as="geometry">
            <Array as="points">
              <mxPoint x="625" y="221" />
            </Array>
          </mxGeometry>
        </mxCell>
        <mxCell id="TlXHAe3m7OYoo4JRVyA1-11" value="Transfert de l&#39;en-tête du document à l&#39;Utilisateur A" style="verticalAlign=bottom;endArrow=block;edgeStyle=elbowEdgeStyle;elbow=vertical;curved=0;rounded=1;" parent="1" source="TlXHAe3m7OYoo4JRVyA1-2" target="TlXHAe3m7OYoo4JRVyA1-1" edge="1">
          <mxGeometry relative="1" as="geometry">
            <Array as="points">
              <mxPoint x="209" y="273" />
            </Array>
          </mxGeometry>
        </mxCell>
        <mxCell id="TlXHAe3m7OYoo4JRVyA1-12" value="Envoie le signal de connexion à l&#39;Utilisateur B" style="verticalAlign=bottom;endArrow=block;edgeStyle=elbowEdgeStyle;elbow=vertical;curved=0;rounded=1;" parent="1" source="TlXHAe3m7OYoo4JRVyA1-1" target="TlXHAe3m7OYoo4JRVyA1-2" edge="1">
          <mxGeometry relative="1" as="geometry">
            <Array as="points">
              <mxPoint x="209" y="420" />
            </Array>
          </mxGeometry>
        </mxCell>
        <mxCell id="TlXHAe3m7OYoo4JRVyA1-13" value="Transfère le signal de connexion à l&#39;Utilisateur B" style="verticalAlign=bottom;endArrow=block;edgeStyle=elbowEdgeStyle;elbow=vertical;curved=0;rounded=1;" parent="1" source="TlXHAe3m7OYoo4JRVyA1-2" target="TlXHAe3m7OYoo4JRVyA1-3" edge="1">
          <mxGeometry relative="1" as="geometry">
            <Array as="points">
              <mxPoint x="625" y="472" />
            </Array>
          </mxGeometry>
        </mxCell>
        <mxCell id="TlXHAe3m7OYoo4JRVyA1-14" value="Envoie la réponse de connexion à l&#39;Utilisateur A" style="verticalAlign=bottom;endArrow=block;edgeStyle=elbowEdgeStyle;elbow=vertical;curved=0;rounded=1;" parent="1" source="TlXHAe3m7OYoo4JRVyA1-3" target="TlXHAe3m7OYoo4JRVyA1-2" edge="1">
          <mxGeometry relative="1" as="geometry">
            <Array as="points">
              <mxPoint x="625" y="524" />
            </Array>
          </mxGeometry>
        </mxCell>
        <mxCell id="TlXHAe3m7OYoo4JRVyA1-15" value="Transfère la réponse de connexion à l&#39;Utilisateur A" style="verticalAlign=bottom;endArrow=block;edgeStyle=elbowEdgeStyle;elbow=vertical;curved=0;rounded=1;" parent="1" source="TlXHAe3m7OYoo4JRVyA1-2" target="TlXHAe3m7OYoo4JRVyA1-1" edge="1">
          <mxGeometry relative="1" as="geometry">
            <Array as="points">
              <mxPoint x="209" y="576" />
            </Array>
          </mxGeometry>
        </mxCell>
        <mxCell id="TlXHAe3m7OYoo4JRVyA1-16" value="Synchronise les données du document avec l&#39;Utilisateur B" style="verticalAlign=bottom;endArrow=block;edgeStyle=elbowEdgeStyle;elbow=vertical;curved=0;rounded=1;" parent="1" source="TlXHAe3m7OYoo4JRVyA1-1" target="TlXHAe3m7OYoo4JRVyA1-3" edge="1">
          <mxGeometry relative="1" as="geometry">
            <Array as="points">
              <mxPoint x="411" y="733" />
            </Array>
          </mxGeometry>
        </mxCell>
        <mxCell id="TlXHAe3m7OYoo4JRVyA1-17" value="Synchronise les données du document avec l&#39;Utilisateur A" style="verticalAlign=bottom;endArrow=block;edgeStyle=elbowEdgeStyle;elbow=vertical;curved=0;rounded=1;" parent="1" source="TlXHAe3m7OYoo4JRVyA1-3" target="TlXHAe3m7OYoo4JRVyA1-1" edge="1">
          <mxGeometry relative="1" as="geometry">
            <Array as="points">
              <mxPoint x="411" y="785" />
            </Array>
          </mxGeometry>
        </mxCell>
        <mxCell id="TlXHAe3m7OYoo4JRVyA1-18" value="Établissement de la Connexion Pair-à-Pair" style="fillColor=#ffff88;strokeColor=#9E916F;rounded=1;" parent="1" vertex="1">
          <mxGeometry x="10" y="293" width="800" height="49" as="geometry" />
        </mxCell>
        <mxCell id="TlXHAe3m7OYoo4JRVyA1-19" value="Synchronisation du Document" style="fillColor=#ffff88;strokeColor=#9E916F;rounded=1;" parent="1" vertex="1">
          <mxGeometry x="10" y="606" width="800" height="49" as="geometry" />
        </mxCell>
      </root>
    </mxGraphModel>
  </diagram>
  <diagram id="l1e3Ayztk2iTtyDTWXUs" name="Page-5">
    <mxGraphModel dx="1015" dy="629" grid="1" gridSize="10" guides="1" tooltips="1" connect="1" arrows="1" fold="1" page="1" pageScale="1" pageWidth="827" pageHeight="1169" math="0" shadow="0">
      <root>
        <mxCell id="0" />
        <mxCell id="1" parent="0" />
        <mxCell id="mIlpeNNypriT0AxmS-TJ-11" value="Expéditeur" style="shape=umlLifeline;perimeter=lifelinePerimeter;whiteSpace=wrap;container=1;dropTarget=0;collapsible=0;recursiveResize=0;outlineConnect=0;portConstraint=eastwest;newEdgeStyle={&quot;edgeStyle&quot;:&quot;elbowEdgeStyle&quot;,&quot;elbow&quot;:&quot;vertical&quot;,&quot;curved&quot;:0,&quot;rounded&quot;:0};size=65;rounded=1;" parent="1" vertex="1">
          <mxGeometry x="20" y="20" width="150" height="740" as="geometry" />
        </mxCell>
        <mxCell id="mIlpeNNypriT0AxmS-TJ-12" value="Destinataire" style="shape=umlLifeline;perimeter=lifelinePerimeter;whiteSpace=wrap;container=1;dropTarget=0;collapsible=0;recursiveResize=0;outlineConnect=0;portConstraint=eastwest;newEdgeStyle={&quot;edgeStyle&quot;:&quot;elbowEdgeStyle&quot;,&quot;elbow&quot;:&quot;vertical&quot;,&quot;curved&quot;:0,&quot;rounded&quot;:0};size=65;rounded=1;" parent="1" vertex="1">
          <mxGeometry x="333" y="20" width="150" height="740" as="geometry" />
        </mxCell>
        <mxCell id="mIlpeNNypriT0AxmS-TJ-13" value="Initie la Connection" style="verticalAlign=bottom;endArrow=block;edgeStyle=elbowEdgeStyle;elbow=vertical;curved=0;rounded=1;" parent="1" source="mIlpeNNypriT0AxmS-TJ-11" target="mIlpeNNypriT0AxmS-TJ-12" edge="1">
          <mxGeometry relative="1" as="geometry">
            <Array as="points">
              <mxPoint x="262" y="127" />
            </Array>
          </mxGeometry>
        </mxCell>
        <mxCell id="mIlpeNNypriT0AxmS-TJ-14" value="Envoie la Clé Publique" style="verticalAlign=bottom;endArrow=block;edgeStyle=elbowEdgeStyle;elbow=vertical;curved=0;rounded=1;" parent="1" source="mIlpeNNypriT0AxmS-TJ-12" target="mIlpeNNypriT0AxmS-TJ-11" edge="1">
          <mxGeometry relative="1" as="geometry">
            <Array as="points">
              <mxPoint x="262" y="179" />
            </Array>
          </mxGeometry>
        </mxCell>
        <mxCell id="mIlpeNNypriT0AxmS-TJ-15" value="Génère le Secret Partagé avec ECDH" style="curved=1;rounded=1;" parent="1" source="mIlpeNNypriT0AxmS-TJ-11" target="mIlpeNNypriT0AxmS-TJ-11" edge="1">
          <mxGeometry relative="1" as="geometry">
            <Array as="points">
              <mxPoint x="145" y="231" />
              <mxPoint x="145" y="261" />
            </Array>
          </mxGeometry>
        </mxCell>
        <mxCell id="mIlpeNNypriT0AxmS-TJ-16" value="Dérive la Clé AES avec PBKDF2" style="curved=1;rounded=1;" parent="1" source="mIlpeNNypriT0AxmS-TJ-11" target="mIlpeNNypriT0AxmS-TJ-11" edge="1">
          <mxGeometry relative="1" as="geometry">
            <Array as="points">
              <mxPoint x="145" y="313" />
              <mxPoint x="145" y="343" />
            </Array>
          </mxGeometry>
        </mxCell>
        <mxCell id="mIlpeNNypriT0AxmS-TJ-17" value="Chiffre le Message avec AES-GCM" style="curved=1;rounded=1;" parent="1" source="mIlpeNNypriT0AxmS-TJ-11" target="mIlpeNNypriT0AxmS-TJ-11" edge="1">
          <mxGeometry relative="1" as="geometry">
            <Array as="points">
              <mxPoint x="145" y="395" />
              <mxPoint x="145" y="425" />
            </Array>
          </mxGeometry>
        </mxCell>
        <mxCell id="mIlpeNNypriT0AxmS-TJ-18" value="Signe avec ECDSA" style="curved=1;rounded=1;" parent="1" source="mIlpeNNypriT0AxmS-TJ-11" target="mIlpeNNypriT0AxmS-TJ-11" edge="1">
          <mxGeometry relative="1" as="geometry">
            <Array as="points">
              <mxPoint x="145" y="477" />
              <mxPoint x="145" y="507" />
            </Array>
          </mxGeometry>
        </mxCell>
        <mxCell id="mIlpeNNypriT0AxmS-TJ-19" value="Envoie le Message Chiffré et Signé" style="verticalAlign=bottom;endArrow=block;edgeStyle=elbowEdgeStyle;elbow=vertical;curved=0;rounded=1;" parent="1" source="mIlpeNNypriT0AxmS-TJ-11" target="mIlpeNNypriT0AxmS-TJ-12" edge="1">
          <mxGeometry relative="1" as="geometry">
            <Array as="points">
              <mxPoint x="262" y="559" />
            </Array>
          </mxGeometry>
        </mxCell>
        <mxCell id="mIlpeNNypriT0AxmS-TJ-20" value="Vérifie la Signature avec ECDSA" style="curved=1;rounded=1;" parent="1" source="mIlpeNNypriT0AxmS-TJ-12" target="mIlpeNNypriT0AxmS-TJ-12" edge="1">
          <mxGeometry relative="1" as="geometry">
            <Array as="points">
              <mxPoint x="458" y="611" />
              <mxPoint x="458" y="641" />
            </Array>
          </mxGeometry>
        </mxCell>
        <mxCell id="mIlpeNNypriT0AxmS-TJ-21" value="Déchiffre le Message avec AES-GCM" style="curved=1;rounded=1;" parent="1" source="mIlpeNNypriT0AxmS-TJ-12" target="mIlpeNNypriT0AxmS-TJ-12" edge="1">
          <mxGeometry relative="1" as="geometry">
            <Array as="points">
              <mxPoint x="458" y="693" />
              <mxPoint x="458" y="723" />
            </Array>
          </mxGeometry>
        </mxCell>
      </root>
    </mxGraphModel>
  </diagram>
  <diagram id="FQkLeV_TDUrYdYS304EW" name="Page-6">
    <mxGraphModel dx="1015" dy="629" grid="1" gridSize="10" guides="1" tooltips="1" connect="1" arrows="1" fold="1" page="1" pageScale="1" pageWidth="827" pageHeight="1169" math="0" shadow="0">
      <root>
        <mxCell id="0" />
        <mxCell id="1" parent="0" />
        <mxCell id="_B1yoGnyUi3JBtNU21ev-1" value="BaseLayer" style="swimlane;fontStyle=1;align=center;verticalAlign=top;childLayout=stackLayout;horizontal=1;startSize=24.6;horizontalStack=0;resizeParent=1;resizeParentMax=0;resizeLast=0;collapsible=0;marginBottom=0;" vertex="1" parent="1">
          <mxGeometry x="270" y="20" width="94" height="186.6" as="geometry" />
        </mxCell>
        <mxCell id="_B1yoGnyUi3JBtNU21ev-2" value="+id" style="text;strokeColor=none;fillColor=none;align=left;verticalAlign=top;spacingLeft=4;spacingRight=4;overflow=hidden;rotatable=0;points=[[0,0.5],[1,0.5]];portConstraint=eastwest;" vertex="1" parent="_B1yoGnyUi3JBtNU21ev-1">
          <mxGeometry y="24.6" width="94" height="25" as="geometry" />
        </mxCell>
        <mxCell id="_B1yoGnyUi3JBtNU21ev-3" value="+name" style="text;strokeColor=none;fillColor=none;align=left;verticalAlign=top;spacingLeft=4;spacingRight=4;overflow=hidden;rotatable=0;points=[[0,0.5],[1,0.5]];portConstraint=eastwest;" vertex="1" parent="_B1yoGnyUi3JBtNU21ev-1">
          <mxGeometry y="49.6" width="94" height="25" as="geometry" />
        </mxCell>
        <mxCell id="_B1yoGnyUi3JBtNU21ev-4" value="+type" style="text;strokeColor=none;fillColor=none;align=left;verticalAlign=top;spacingLeft=4;spacingRight=4;overflow=hidden;rotatable=0;points=[[0,0.5],[1,0.5]];portConstraint=eastwest;" vertex="1" parent="_B1yoGnyUi3JBtNU21ev-1">
          <mxGeometry y="74.6" width="94" height="25" as="geometry" />
        </mxCell>
        <mxCell id="_B1yoGnyUi3JBtNU21ev-5" value="+visible" style="text;strokeColor=none;fillColor=none;align=left;verticalAlign=top;spacingLeft=4;spacingRight=4;overflow=hidden;rotatable=0;points=[[0,0.5],[1,0.5]];portConstraint=eastwest;" vertex="1" parent="_B1yoGnyUi3JBtNU21ev-1">
          <mxGeometry y="99.6" width="94" height="25" as="geometry" />
        </mxCell>
        <mxCell id="_B1yoGnyUi3JBtNU21ev-6" value="+zIndex" style="text;strokeColor=none;fillColor=none;align=left;verticalAlign=top;spacingLeft=4;spacingRight=4;overflow=hidden;rotatable=0;points=[[0,0.5],[1,0.5]];portConstraint=eastwest;" vertex="1" parent="_B1yoGnyUi3JBtNU21ev-1">
          <mxGeometry y="124.6" width="94" height="25" as="geometry" />
        </mxCell>
        <mxCell id="_B1yoGnyUi3JBtNU21ev-7" value="+style" style="text;strokeColor=none;fillColor=none;align=left;verticalAlign=top;spacingLeft=4;spacingRight=4;overflow=hidden;rotatable=0;points=[[0,0.5],[1,0.5]];portConstraint=eastwest;" vertex="1" parent="_B1yoGnyUi3JBtNU21ev-1">
          <mxGeometry y="149.6" width="94" height="25" as="geometry" />
        </mxCell>
        <mxCell id="_B1yoGnyUi3JBtNU21ev-8" style="line;strokeWidth=1;fillColor=none;align=left;verticalAlign=middle;spacingTop=-1;spacingLeft=3;spacingRight=3;rotatable=0;labelPosition=right;points=[];portConstraint=eastwest;strokeColor=inherit;" vertex="1" parent="_B1yoGnyUi3JBtNU21ev-1">
          <mxGeometry y="174.6" width="94" height="12" as="geometry" />
        </mxCell>
        <mxCell id="_B1yoGnyUi3JBtNU21ev-9" value="CircleLayer" style="swimlane;fontStyle=1;align=center;verticalAlign=top;childLayout=stackLayout;horizontal=1;startSize=28.8;horizontalStack=0;resizeParent=1;resizeParentMax=0;resizeLast=0;collapsible=0;marginBottom=0;" vertex="1" parent="1">
          <mxGeometry x="50" y="240" width="100" height="71.8" as="geometry" />
        </mxCell>
        <mxCell id="_B1yoGnyUi3JBtNU21ev-10" value="+radius" style="text;strokeColor=none;fillColor=none;align=left;verticalAlign=top;spacingLeft=4;spacingRight=4;overflow=hidden;rotatable=0;points=[[0,0.5],[1,0.5]];portConstraint=eastwest;" vertex="1" parent="_B1yoGnyUi3JBtNU21ev-9">
          <mxGeometry y="28.8" width="100" height="29" as="geometry" />
        </mxCell>
        <mxCell id="_B1yoGnyUi3JBtNU21ev-11" style="line;strokeWidth=1;fillColor=none;align=left;verticalAlign=middle;spacingTop=-1;spacingLeft=3;spacingRight=3;rotatable=0;labelPosition=right;points=[];portConstraint=eastwest;strokeColor=inherit;" vertex="1" parent="_B1yoGnyUi3JBtNU21ev-9">
          <mxGeometry y="57.8" width="100" height="14" as="geometry" />
        </mxCell>
        <mxCell id="_B1yoGnyUi3JBtNU21ev-12" value="RectangleLayer" style="swimlane;fontStyle=1;align=center;verticalAlign=top;childLayout=stackLayout;horizontal=1;startSize=27;horizontalStack=0;resizeParent=1;resizeParentMax=0;resizeLast=0;collapsible=0;marginBottom=0;" vertex="1" parent="1">
          <mxGeometry x="170" y="240" width="130" height="95" as="geometry" />
        </mxCell>
        <mxCell id="_B1yoGnyUi3JBtNU21ev-13" value="+width" style="text;strokeColor=none;fillColor=none;align=left;verticalAlign=top;spacingLeft=4;spacingRight=4;overflow=hidden;rotatable=0;points=[[0,0.5],[1,0.5]];portConstraint=eastwest;" vertex="1" parent="_B1yoGnyUi3JBtNU21ev-12">
          <mxGeometry y="27" width="130" height="27" as="geometry" />
        </mxCell>
        <mxCell id="_B1yoGnyUi3JBtNU21ev-14" value="+height" style="text;strokeColor=none;fillColor=none;align=left;verticalAlign=top;spacingLeft=4;spacingRight=4;overflow=hidden;rotatable=0;points=[[0,0.5],[1,0.5]];portConstraint=eastwest;" vertex="1" parent="_B1yoGnyUi3JBtNU21ev-12">
          <mxGeometry y="54" width="130" height="27" as="geometry" />
        </mxCell>
        <mxCell id="_B1yoGnyUi3JBtNU21ev-15" style="line;strokeWidth=1;fillColor=none;align=left;verticalAlign=middle;spacingTop=-1;spacingLeft=3;spacingRight=3;rotatable=0;labelPosition=right;points=[];portConstraint=eastwest;strokeColor=inherit;" vertex="1" parent="_B1yoGnyUi3JBtNU21ev-12">
          <mxGeometry y="81" width="130" height="14" as="geometry" />
        </mxCell>
        <mxCell id="_B1yoGnyUi3JBtNU21ev-16" value="ImageLayer" style="swimlane;fontStyle=1;align=center;verticalAlign=top;childLayout=stackLayout;horizontal=1;startSize=28.8;horizontalStack=0;resizeParent=1;resizeParentMax=0;resizeLast=0;collapsible=0;marginBottom=0;" vertex="1" parent="1">
          <mxGeometry x="351" y="240" width="101" height="71.8" as="geometry" />
        </mxCell>
        <mxCell id="_B1yoGnyUi3JBtNU21ev-17" value="+src" style="text;strokeColor=none;fillColor=none;align=left;verticalAlign=top;spacingLeft=4;spacingRight=4;overflow=hidden;rotatable=0;points=[[0,0.5],[1,0.5]];portConstraint=eastwest;" vertex="1" parent="_B1yoGnyUi3JBtNU21ev-16">
          <mxGeometry y="28.8" width="101" height="29" as="geometry" />
        </mxCell>
        <mxCell id="_B1yoGnyUi3JBtNU21ev-18" style="line;strokeWidth=1;fillColor=none;align=left;verticalAlign=middle;spacingTop=-1;spacingLeft=3;spacingRight=3;rotatable=0;labelPosition=right;points=[];portConstraint=eastwest;strokeColor=inherit;" vertex="1" parent="_B1yoGnyUi3JBtNU21ev-16">
          <mxGeometry y="57.8" width="101" height="14" as="geometry" />
        </mxCell>
        <mxCell id="_B1yoGnyUi3JBtNU21ev-19" value="PathLayer" style="swimlane;fontStyle=1;align=center;verticalAlign=top;childLayout=stackLayout;horizontal=1;startSize=28.8;horizontalStack=0;resizeParent=1;resizeParentMax=0;resizeLast=0;collapsible=0;marginBottom=0;" vertex="1" parent="1">
          <mxGeometry x="470" y="240" width="90" height="71.8" as="geometry" />
        </mxCell>
        <mxCell id="_B1yoGnyUi3JBtNU21ev-20" value="+points" style="text;strokeColor=none;fillColor=none;align=left;verticalAlign=top;spacingLeft=4;spacingRight=4;overflow=hidden;rotatable=0;points=[[0,0.5],[1,0.5]];portConstraint=eastwest;" vertex="1" parent="_B1yoGnyUi3JBtNU21ev-19">
          <mxGeometry y="28.8" width="90" height="29" as="geometry" />
        </mxCell>
        <mxCell id="_B1yoGnyUi3JBtNU21ev-21" style="line;strokeWidth=1;fillColor=none;align=left;verticalAlign=middle;spacingTop=-1;spacingLeft=3;spacingRight=3;rotatable=0;labelPosition=right;points=[];portConstraint=eastwest;strokeColor=inherit;" vertex="1" parent="_B1yoGnyUi3JBtNU21ev-19">
          <mxGeometry y="57.8" width="90" height="14" as="geometry" />
        </mxCell>
        <mxCell id="_B1yoGnyUi3JBtNU21ev-35" value="" style="startArrow=block;startSize=16;startFill=0;endArrow=none;exitX=-0.001223385989010989;exitY=0.6139598839351492;entryX=0.5021875;entryY=-0.003125;rounded=0;edgeStyle=orthogonalEdgeStyle;" edge="1" parent="1" source="_B1yoGnyUi3JBtNU21ev-1" target="_B1yoGnyUi3JBtNU21ev-9">
          <mxGeometry relative="1" as="geometry" />
        </mxCell>
        <mxCell id="_B1yoGnyUi3JBtNU21ev-36" value="" style="startArrow=block;startSize=16;startFill=0;endArrow=none;exitX=-0.001223385989010989;exitY=0.8441549970567054;entryX=0.504717548076923;entryY=-0.0048543689320388345;rounded=0;edgeStyle=orthogonalEdgeStyle;" edge="1" parent="1" source="_B1yoGnyUi3JBtNU21ev-1" target="_B1yoGnyUi3JBtNU21ev-12">
          <mxGeometry relative="1" as="geometry" />
        </mxCell>
        <mxCell id="_B1yoGnyUi3JBtNU21ev-37" value="" style="startArrow=block;startSize=16;startFill=0;endArrow=none;exitX=0.9995492788461539;exitY=0.8441549970567054;entryX=0.4973700495049505;entryY=-0.003125;rounded=0;edgeStyle=orthogonalEdgeStyle;" edge="1" parent="1" source="_B1yoGnyUi3JBtNU21ev-1" target="_B1yoGnyUi3JBtNU21ev-16">
          <mxGeometry relative="1" as="geometry" />
        </mxCell>
        <mxCell id="_B1yoGnyUi3JBtNU21ev-38" value="" style="startArrow=block;startSize=16;startFill=0;endArrow=none;exitX=0.9995492788461539;exitY=0.6240523230525984;entryX=0.49605034722222224;entryY=-0.003125;rounded=0;edgeStyle=orthogonalEdgeStyle;" edge="1" parent="1" source="_B1yoGnyUi3JBtNU21ev-1" target="_B1yoGnyUi3JBtNU21ev-19">
          <mxGeometry relative="1" as="geometry" />
        </mxCell>
      </root>
    </mxGraphModel>
  </diagram>
  <diagram id="y60TCulUbuLnLI0O0Qzf" name="Page-7">
    <mxGraphModel dx="1015" dy="629" grid="1" gridSize="10" guides="1" tooltips="1" connect="1" arrows="1" fold="1" page="1" pageScale="1" pageWidth="827" pageHeight="1169" math="0" shadow="0">
      <root>
        <mxCell id="0" />
        <mxCell id="1" parent="0" />
        <mxCell id="XLgw2ogS588mD7ZvokcR-1" value="BaseLayerUtil" style="swimlane;fontStyle=1;align=center;verticalAlign=top;childLayout=stackLayout;horizontal=1;startSize=26;horizontalStack=0;resizeParent=1;resizeParentMax=0;resizeLast=0;collapsible=0;marginBottom=0;" vertex="1" parent="1">
          <mxGeometry x="305" y="54" width="118" height="112" as="geometry" />
        </mxCell>
        <mxCell id="XLgw2ogS588mD7ZvokcR-2" style="line;strokeWidth=1;fillColor=none;align=left;verticalAlign=middle;spacingTop=-1;spacingLeft=3;spacingRight=3;rotatable=0;labelPosition=right;points=[];portConstraint=eastwest;strokeColor=inherit;" vertex="1" parent="XLgw2ogS588mD7ZvokcR-1">
          <mxGeometry y="26" width="118" height="8" as="geometry" />
        </mxCell>
        <mxCell id="XLgw2ogS588mD7ZvokcR-3" value="+create()" style="text;strokeColor=none;fillColor=none;align=left;verticalAlign=top;spacingLeft=4;spacingRight=4;overflow=hidden;rotatable=0;points=[[0,0.5],[1,0.5]];portConstraint=eastwest;" vertex="1" parent="XLgw2ogS588mD7ZvokcR-1">
          <mxGeometry y="34" width="118" height="26" as="geometry" />
        </mxCell>
        <mxCell id="XLgw2ogS588mD7ZvokcR-4" value="+resize()" style="text;strokeColor=none;fillColor=none;align=left;verticalAlign=top;spacingLeft=4;spacingRight=4;overflow=hidden;rotatable=0;points=[[0,0.5],[1,0.5]];portConstraint=eastwest;" vertex="1" parent="XLgw2ogS588mD7ZvokcR-1">
          <mxGeometry y="60" width="118" height="26" as="geometry" />
        </mxCell>
        <mxCell id="XLgw2ogS588mD7ZvokcR-5" value="+getBounds()" style="text;strokeColor=none;fillColor=none;align=left;verticalAlign=top;spacingLeft=4;spacingRight=4;overflow=hidden;rotatable=0;points=[[0,0.5],[1,0.5]];portConstraint=eastwest;" vertex="1" parent="XLgw2ogS588mD7ZvokcR-1">
          <mxGeometry y="86" width="118" height="26" as="geometry" />
        </mxCell>
        <mxCell id="XLgw2ogS588mD7ZvokcR-6" value="CircleLayerUtil" style="swimlane;fontStyle=1;align=center;verticalAlign=top;childLayout=stackLayout;horizontal=1;startSize=24.75;horizontalStack=0;resizeParent=1;resizeParentMax=0;resizeLast=0;collapsible=0;marginBottom=0;" vertex="1" parent="1">
          <mxGeometry x="50" y="240" width="127" height="36.75" as="geometry" />
        </mxCell>
        <mxCell id="XLgw2ogS588mD7ZvokcR-7" style="line;strokeWidth=1;fillColor=none;align=left;verticalAlign=middle;spacingTop=-1;spacingLeft=3;spacingRight=3;rotatable=0;labelPosition=right;points=[];portConstraint=eastwest;strokeColor=inherit;" vertex="1" parent="XLgw2ogS588mD7ZvokcR-6">
          <mxGeometry y="24.75" width="127" height="12" as="geometry" />
        </mxCell>
        <mxCell id="XLgw2ogS588mD7ZvokcR-8" value="RectangleLayerUtil" style="swimlane;fontStyle=1;align=center;verticalAlign=top;childLayout=stackLayout;horizontal=1;startSize=24.75;horizontalStack=0;resizeParent=1;resizeParentMax=0;resizeLast=0;collapsible=0;marginBottom=0;" vertex="1" parent="1">
          <mxGeometry x="200" y="240" width="157" height="36.75" as="geometry" />
        </mxCell>
        <mxCell id="XLgw2ogS588mD7ZvokcR-9" style="line;strokeWidth=1;fillColor=none;align=left;verticalAlign=middle;spacingTop=-1;spacingLeft=3;spacingRight=3;rotatable=0;labelPosition=right;points=[];portConstraint=eastwest;strokeColor=inherit;" vertex="1" parent="XLgw2ogS588mD7ZvokcR-8">
          <mxGeometry y="24.75" width="157" height="12" as="geometry" />
        </mxCell>
        <mxCell id="XLgw2ogS588mD7ZvokcR-10" value="ImageLayerUtil" style="swimlane;fontStyle=1;align=center;verticalAlign=top;childLayout=stackLayout;horizontal=1;startSize=24.75;horizontalStack=0;resizeParent=1;resizeParentMax=0;resizeLast=0;collapsible=0;marginBottom=0;" vertex="1" parent="1">
          <mxGeometry x="380" y="240" width="128" height="36.75" as="geometry" />
        </mxCell>
        <mxCell id="XLgw2ogS588mD7ZvokcR-11" style="line;strokeWidth=1;fillColor=none;align=left;verticalAlign=middle;spacingTop=-1;spacingLeft=3;spacingRight=3;rotatable=0;labelPosition=right;points=[];portConstraint=eastwest;strokeColor=inherit;" vertex="1" parent="XLgw2ogS588mD7ZvokcR-10">
          <mxGeometry y="24.75" width="128" height="12" as="geometry" />
        </mxCell>
        <mxCell id="XLgw2ogS588mD7ZvokcR-12" value="PathLayerUtil" style="swimlane;fontStyle=1;align=center;verticalAlign=top;childLayout=stackLayout;horizontal=1;startSize=24.75;horizontalStack=0;resizeParent=1;resizeParentMax=0;resizeLast=0;collapsible=0;marginBottom=0;" vertex="1" parent="1">
          <mxGeometry x="530" y="240" width="117" height="36.75" as="geometry" />
        </mxCell>
        <mxCell id="XLgw2ogS588mD7ZvokcR-13" style="line;strokeWidth=1;fillColor=none;align=left;verticalAlign=middle;spacingTop=-1;spacingLeft=3;spacingRight=3;rotatable=0;labelPosition=right;points=[];portConstraint=eastwest;strokeColor=inherit;" vertex="1" parent="XLgw2ogS588mD7ZvokcR-12">
          <mxGeometry y="24.75" width="117" height="12" as="geometry" />
        </mxCell>
        <mxCell id="XLgw2ogS588mD7ZvokcR-14" value="" style="startArrow=block;startSize=16;startFill=0;endArrow=none;exitX=-0.004088320974576272;exitY=0.696139742903416;entryX=0.4973855807086614;entryY=0;rounded=0;edgeStyle=orthogonalEdgeStyle;" edge="1" parent="1" source="XLgw2ogS588mD7ZvokcR-1" target="XLgw2ogS588mD7ZvokcR-6">
          <mxGeometry relative="1" as="geometry" />
        </mxCell>
        <mxCell id="XLgw2ogS588mD7ZvokcR-15" value="" style="startArrow=block;startSize=16;startFill=0;endArrow=none;exitX=0.0748349245915606;exitY=0.998;entryX=0.4983578821656051;entryY=0;rounded=0;edgeStyle=orthogonalEdgeStyle;" edge="1" parent="1" source="XLgw2ogS588mD7ZvokcR-1" target="XLgw2ogS588mD7ZvokcR-8">
          <mxGeometry relative="1" as="geometry" />
        </mxCell>
        <mxCell id="XLgw2ogS588mD7ZvokcR-16" value="" style="startArrow=block;startSize=16;startFill=0;endArrow=none;exitX=0.9148697893914902;exitY=0.998;entryX=0.496429443359375;entryY=0;rounded=0;edgeStyle=orthogonalEdgeStyle;" edge="1" parent="1" source="XLgw2ogS588mD7ZvokcR-1" target="XLgw2ogS588mD7ZvokcR-10">
          <mxGeometry relative="1" as="geometry" />
        </mxCell>
        <mxCell id="XLgw2ogS588mD7ZvokcR-17" value="" style="startArrow=block;startSize=16;startFill=0;endArrow=none;exitX=0.9937930349576272;exitY=0.7109015064912368;entryX=0.5011351495726496;entryY=0;rounded=0;edgeStyle=orthogonalEdgeStyle;" edge="1" parent="1" source="XLgw2ogS588mD7ZvokcR-1" target="XLgw2ogS588mD7ZvokcR-12">
          <mxGeometry relative="1" as="geometry" />
        </mxCell>
      </root>
    </mxGraphModel>
  </diagram>
  <diagram id="2tN5xv4ACF4N3cfwaw7t" name="Page-8">
    <mxGraphModel dx="1015" dy="629" grid="1" gridSize="10" guides="1" tooltips="1" connect="1" arrows="1" fold="1" page="1" pageScale="1" pageWidth="827" pageHeight="1169" math="0" shadow="0">
      <root>
        <mxCell id="0" />
        <mxCell id="1" parent="0" />
        <mxCell id="WDmBPxwmTrob3LF29DwJ-1" value="Application" style="shape=umlLifeline;perimeter=lifelinePerimeter;whiteSpace=wrap;container=1;dropTarget=0;collapsible=0;recursiveResize=0;outlineConnect=0;portConstraint=eastwest;newEdgeStyle={&quot;edgeStyle&quot;:&quot;elbowEdgeStyle&quot;,&quot;elbow&quot;:&quot;vertical&quot;,&quot;curved&quot;:0,&quot;rounded&quot;:0};size=65;rounded=1;" vertex="1" parent="1">
          <mxGeometry x="20" y="20" width="150" height="352" as="geometry" />
        </mxCell>
        <mxCell id="WDmBPxwmTrob3LF29DwJ-2" value="BaseLayerUtil" style="shape=umlLifeline;perimeter=lifelinePerimeter;whiteSpace=wrap;container=1;dropTarget=0;collapsible=0;recursiveResize=0;outlineConnect=0;portConstraint=eastwest;newEdgeStyle={&quot;edgeStyle&quot;:&quot;elbowEdgeStyle&quot;,&quot;elbow&quot;:&quot;vertical&quot;,&quot;curved&quot;:0,&quot;rounded&quot;:0};size=65;rounded=1;" vertex="1" parent="1">
          <mxGeometry x="258" y="20" width="150" height="352" as="geometry" />
        </mxCell>
        <mxCell id="WDmBPxwmTrob3LF29DwJ-3" value="CircleLayerUtil" style="shape=umlLifeline;perimeter=lifelinePerimeter;whiteSpace=wrap;container=1;dropTarget=0;collapsible=0;recursiveResize=0;outlineConnect=0;portConstraint=eastwest;newEdgeStyle={&quot;edgeStyle&quot;:&quot;elbowEdgeStyle&quot;,&quot;elbow&quot;:&quot;vertical&quot;,&quot;curved&quot;:0,&quot;rounded&quot;:0};size=65;rounded=1;" vertex="1" parent="1">
          <mxGeometry x="496" y="20" width="150" height="352" as="geometry" />
        </mxCell>
        <mxCell id="WDmBPxwmTrob3LF29DwJ-4" value="createLayer(&#39;circle&#39;)" style="verticalAlign=bottom;endArrow=block;edgeStyle=elbowEdgeStyle;elbow=vertical;curved=0;rounded=1;" edge="1" parent="1" source="WDmBPxwmTrob3LF29DwJ-1" target="WDmBPxwmTrob3LF29DwJ-2">
          <mxGeometry relative="1" as="geometry">
            <Array as="points">
              <mxPoint x="224" y="123" />
            </Array>
          </mxGeometry>
        </mxCell>
        <mxCell id="WDmBPxwmTrob3LF29DwJ-5" value="create()" style="verticalAlign=bottom;endArrow=block;edgeStyle=elbowEdgeStyle;elbow=vertical;curved=0;rounded=1;" edge="1" parent="1" source="WDmBPxwmTrob3LF29DwJ-2" target="WDmBPxwmTrob3LF29DwJ-3">
          <mxGeometry relative="1" as="geometry">
            <Array as="points">
              <mxPoint x="462" y="171" />
            </Array>
          </mxGeometry>
        </mxCell>
        <mxCell id="WDmBPxwmTrob3LF29DwJ-6" value="Return new CircleLayer" style="verticalAlign=bottom;endArrow=block;edgeStyle=elbowEdgeStyle;elbow=vertical;curved=0;rounded=1;dashed=1;dashPattern=2 3;" edge="1" parent="1" source="WDmBPxwmTrob3LF29DwJ-3" target="WDmBPxwmTrob3LF29DwJ-2">
          <mxGeometry relative="1" as="geometry">
            <Array as="points">
              <mxPoint x="462" y="219" />
            </Array>
          </mxGeometry>
        </mxCell>
        <mxCell id="WDmBPxwmTrob3LF29DwJ-7" value="Return new CircleLayer" style="verticalAlign=bottom;endArrow=block;edgeStyle=elbowEdgeStyle;elbow=vertical;curved=0;rounded=1;dashed=1;dashPattern=2 3;" edge="1" parent="1" source="WDmBPxwmTrob3LF29DwJ-2" target="WDmBPxwmTrob3LF29DwJ-1">
          <mxGeometry relative="1" as="geometry">
            <Array as="points">
              <mxPoint x="224" y="267" />
            </Array>
          </mxGeometry>
        </mxCell>
      </root>
    </mxGraphModel>
  </diagram>
</mxfile>
